<?xml version="1.0" encoding="UTF-8" standalone="no"?>
<!-- Created with Inkscape (http://www.inkscape.org/) -->

<svg
   xmlns:dc="http://purl.org/dc/elements/1.1/"
   xmlns:cc="http://creativecommons.org/ns#"
   xmlns:rdf="http://www.w3.org/1999/02/22-rdf-syntax-ns#"
   xmlns:svg="http://www.w3.org/2000/svg"
   xmlns="http://www.w3.org/2000/svg"
   xmlns:sodipodi="http://sodipodi.sourceforge.net/DTD/sodipodi-0.dtd"
   xmlns:inkscape="http://www.inkscape.org/namespaces/inkscape"
   width="744.09448819"
   height="1052.3622047"
   id="svg2"
   version="1.1"
   inkscape:version="0.48.3.1 r9886"
   sodipodi:docname="New document 1">
  <defs
     id="defs4" />
  <sodipodi:namedview
     id="base"
     pagecolor="#ffffff"
     bordercolor="#666666"
     borderopacity="1.0"
     inkscape:pageopacity="0.0"
     inkscape:pageshadow="2"
     inkscape:zoom="1.4"
     inkscape:cx="401.05576"
     inkscape:cy="661.38796"
     inkscape:document-units="px"
     inkscape:current-layer="layer1"
     showgrid="true"
     inkscape:window-width="1164"
     inkscape:window-height="835"
     inkscape:window-x="39"
     inkscape:window-y="49"
     inkscape:window-maximized="0">
    <inkscape:grid
       type="xygrid"
       id="grid2985" />
  </sodipodi:namedview>
  <metadata
     id="metadata7">
    <rdf:RDF>
      <cc:Work
         rdf:about="">
        <dc:format>image/svg+xml</dc:format>
        <dc:type
           rdf:resource="http://purl.org/dc/dcmitype/StillImage" />
        <dc:title></dc:title>
      </cc:Work>
    </rdf:RDF>
  </metadata>
  <g
     inkscape:label="Layer 1"
     inkscape:groupmode="layer"
     id="layer1">
    <rect
       style="fill:none;stroke:#000000;stroke-opacity:1"
       id="rect2987"
       width="400"
       height="400"
       x="235"
       y="172.36218" />
    <path
       style="fill:none;stroke:#000000;stroke-width:1px;stroke-linecap:butt;stroke-linejoin:miter;stroke-opacity:1"
       d="m 630,572.36218 c 0,-529.999997 -390,-529.999997 -390,0 l 15,-15 15,15 15,-15 15,15"
       id="path3757"
       inkscape:connector-curvature="0"
       sodipodi:nodetypes="cccccc" />
    <path
       style="fill:none;stroke:#000000;stroke-width:1px;stroke-linecap:butt;stroke-linejoin:miter;stroke-opacity:1"
       d="m 300,572.36218 15,-15 15,15 15,-15 15,15 15,-15 15,15 15,-15 15,15 15,-15 15,15 15,-15 15,15 15,-15 15,15 15,-15 15,15 15,-15 15,15 15,-15 15,15 15,-15 15,15"
       id="path3759"
       inkscape:connector-curvature="0" />
    <path
       sodipodi:type="arc"
       style="fill:none;stroke:#000000;stroke-opacity:1"
       id="path3761"
       sodipodi:cx="370"
       sodipodi:cy="312.36218"
       sodipodi:rx="20"
       sodipodi:ry="50"
       d="m 390,312.36218 a 20,50 0 1 1 -40,0 20,50 0 1 1 40,0 z" />
    <path
       transform="translate(140,0)"
       sodipodi:type="arc"
       style="fill:none;stroke:#000000;stroke-opacity:1"
       id="path3761-3"
       sodipodi:cx="370"
       sodipodi:cy="312.36218"
       sodipodi:rx="20"
       sodipodi:ry="50"
       d="m 390,312.36218 a 20,50 0 1 1 -40,0 20,50 0 1 1 40,0 z" />
    <path
       sodipodi:type="arc"
       style="fill:#000000;stroke:#000000;stroke-opacity:1;fill-opacity:1"
       id="path3781"
       sodipodi:cx="380"
       sodipodi:cy="312.36218"
       sodipodi:rx="10"
       sodipodi:ry="20"
       d="m 390,312.36218 a 10,20 0 1 1 -20,0 10,20 0 1 1 20,0 z" />
    <path
       transform="translate(140,0)"
       sodipodi:type="arc"
       style="fill:#000000;fill-opacity:1;stroke:#000000;stroke-opacity:1"
       id="path3781-6"
       sodipodi:cx="380"
       sodipodi:cy="312.36218"
       sodipodi:rx="10"
       sodipodi:ry="20"
       d="m 390,312.36218 a 10,20 0 1 1 -20,0 10,20 0 1 1 20,0 z" />
  </g>
</svg>
